<?xml version="1.0" encoding="UTF-8"?>
<svg width="500px" height="500px" viewBox="0 0 500 500" version="1.1" xmlns="http://www.w3.org/2000/svg" xmlns:xlink="http://www.w3.org/1999/xlink">
    <!-- Generator: Sketch 53.2 (72643) - https://sketchapp.com -->
    <title>Frase</title>
    <desc>Created with Sketch.</desc>
    <g id="Page-1" stroke="none" stroke-width="1" fill="none" fill-rule="evenodd">
        <g id="Apple-TV" transform="translate(-754.000000, -230.000000)">
            <g id="Banner-Principal" transform="translate(-1.000000, 125.000000)">
                <g id="Frase" transform="translate(724.038937, 74.000000)">
                    <path d="M270.611078,32.5198305 C272.583672,50.2815132 272.583672,68.5605264 273.098262,86.4946527 C273.612852,104.601222 273.441322,122.62157 273.355557,140.641918 C273.355557,142.280132 271.811787,142.366354 271.640257,140.72814 C270.611078,122.707792 269.496133,104.687444 268.981543,86.6670962 C268.466953,68.73297 267.523539,50.4539567 268.466953,32.5198305 C268.638483,30.53673 270.439548,30.4505082 270.611078,32.5198305 Z M219.812482,49.8590265 C224.100731,60.1194161 226.587915,71.673132 229.246629,82.7095174 C232.248404,94.9530074 234.907118,107.196497 237.137007,119.526209 C237.565832,121.681753 236.022063,122.02664 235.421708,119.871096 C231.819579,107.886271 228.646275,95.815225 225.730265,83.571735 C223.157316,72.5353496 220.069777,61.0678554 219.212127,49.9452483 C219.212127,49.4279177 219.640952,49.341696 219.812482,49.8590265 Z M167.890365,57.1878762 C177.667572,74.3460066 185.90101,92.7112416 194.391743,110.645368 C202.96824,128.579494 210.944383,146.772286 219.006291,164.965077 C219.692411,166.689512 218.234406,167.379286 217.462522,165.741073 C208.371434,147.97939 199.280346,130.390151 190.703849,112.369803 C182.213116,94.5218986 173.122029,76.5015506 166.003535,58.1363156 C165.145886,55.9807716 166.77542,55.2047757 167.890365,57.1878762 Z M128.352711,93.8148801 C137.701093,103.12683 146.191826,114.594324 154.425264,125.372045 C163.687881,137.356869 172.607439,149.341694 181.098171,161.757628 C182.556176,163.82695 181.355466,164.861611 179.725932,162.792289 C169.948724,151.324795 160.686107,139.598635 151.595019,127.61381 C143.361582,116.83609 134.442024,105.713483 127.923886,94.1597672 C127.580826,93.6424366 127.923886,93.3837713 128.352711,93.8148801 Z M116.066564,178.746483 C116.066564,179.177592 116.495389,179.953587 116.666919,180.470918 C116.066564,180.298474 115.551974,180.298474 114.951619,180.212253 C113.836675,179.263813 112.635965,178.315374 111.52102,177.280713 C104.745587,171.503855 97.6270941,165.89944 91.5377807,159.174143 C90.8516609,158.484369 91.7093107,157.449708 92.6527254,158.05326 C100.028513,162.967901 106.718182,169.175867 113.493615,174.952725 C113.75091,175.125169 113.92244,175.297612 114.09397,175.470056 C114.694324,176.332273 115.294679,177.280713 115.809269,178.229152 C115.895034,178.401596 115.980799,178.574039 116.066564,178.746483 Z M73.6724222,292.56328 C73.9193528,292.916423 74.7151007,293.305776 75.1519265,293.631026 C74.5613724,293.834597 74.139845,294.130164 73.598677,294.404363 C72.1421204,294.267842 70.6153093,294.180582 69.1093666,293.973432 C60.2503864,293.132938 51.2091602,292.630745 42.368969,290.619246 C41.4118436,290.448305 41.5217557,289.108149 42.6402586,289.060677 C51.4971595,288.850056 60.5328158,290.092955 69.391796,290.93345 C69.7013319,290.926924 69.9406133,290.969659 70.1798947,291.012394 C71.1655378,291.373853 72.200567,291.805941 73.1653417,292.287291 C73.3343685,292.379287 73.5033954,292.471283 73.6724222,292.56328 Z M502.514234,359.136976 C502.640104,359.549248 503.276755,360.165786 503.591833,360.610291 C502.967363,360.621153 502.475258,360.771814 501.875962,360.86513 C500.532824,360.284565 499.107667,359.729109 497.739355,359.066089 C489.57333,355.525351 481.129584,352.249962 473.342787,347.601345 C472.485257,347.142592 473.003346,345.902039 474.081754,346.203008 C482.570163,348.743433 490.780039,352.721553 498.946063,356.262291 C499.242463,356.351869 499.456846,356.466558 499.671228,356.581246 C500.497088,357.230018 501.348123,357.961244 502.117139,358.717581 C502.249504,358.857379 502.381869,358.997178 502.514234,359.136976 Z M505.113896,409.781161 C505.239765,410.193432 505.876416,410.80997 506.191494,411.254476 C505.567024,411.265338 505.07492,411.415998 504.475624,411.509315 C503.132485,410.928749 501.707329,410.373294 500.339016,409.710274 C492.172992,406.169535 483.729245,402.894146 475.942448,398.24553 C475.084918,397.786777 475.603007,396.546224 476.681416,396.847193 C485.169824,399.387618 493.3797,403.365737 501.545724,406.906476 C501.842124,406.996054 502.056507,407.110742 502.27089,407.225431 C503.09675,407.874203 503.947784,408.605429 504.716801,409.361765 C504.849166,409.501564 504.981531,409.641362 505.113896,409.781161 Z M32.5446551,214.602945 C44.3802219,216.586045 55.8727288,220.466024 67.3652357,223.828673 C78.8577425,227.277543 90.1787195,231.243744 101.499696,235.296167 C102.528876,235.641054 102.100051,237.193046 100.985107,236.934381 C89.3210697,234.089063 77.7427978,231.243744 66.164526,227.794874 C54.7577841,224.432225 42.9222173,221.414464 31.9443002,216.672267 C30.7435906,216.154936 31.1724154,214.430501 32.5446551,214.602945 Z M59.4233988,421.060951 C73.40309,410.714339 88.6692559,401.833498 103.506597,392.693991 C118.343938,383.468263 133.524339,374.846087 148.70474,366.137689 C150.076979,365.361693 150.848864,366.741241 149.562389,367.603459 C134.982343,377.346518 120.488062,387.003355 105.650721,396.229084 C90.8133803,405.36859 75.9760393,415.025427 60.5383435,422.871608 C58.737279,423.820047 57.7938642,422.268055 59.4233988,421.060951 Z M31.9252937,364.471166 C44.1416862,358.838814 56.9171217,354.661852 69.4524667,350.187444 C82.0079653,345.642655 94.6628298,341.659577 107.337848,337.606117 C108.480994,337.248849 108.699529,338.530295 107.59634,338.975206 C95.1002506,343.994065 82.6844251,348.959803 70.1289266,353.504592 C57.5935815,357.979 44.9373152,362.875697 32.2835019,366.173561 C30.7994982,366.585291 30.5010497,365.128561 31.9252937,364.471166 Z M113.66117,443.582074 C120.093543,434.959898 128.584276,427.286162 136.474654,419.698647 C145.308447,411.248914 154.056474,403.057847 163.319092,395.211667 C164.948626,393.832119 165.977806,395.039223 164.605566,396.504993 C156.372129,405.472056 147.795631,413.921789 138.961838,422.2853 C131.07146,429.872815 122.923788,437.97766 114.089995,444.013183 C113.66117,444.35807 113.31811,444.013183 113.66117,443.582074 Z M132.12637,498.186316 C142.332402,480.597076 154.339499,463.783833 165.832006,446.97059 C177.410277,430.071125 189.331609,413.602768 201.338706,397.04819 C202.453651,395.496199 203.740125,396.444638 202.710946,397.99663 C191.733029,415.240982 180.755111,432.399112 169.262605,449.298577 C157.770098,466.111821 146.449121,483.528616 133.927434,499.39342 C132.46943,501.204077 131.011425,500.169416 132.12637,498.186316 Z M190.129223,498.315648 C193.388293,485.727271 198.877251,473.052672 203.937385,460.72296 C209.512108,447.099922 215.172597,433.649328 221.43344,420.457398 C222.548385,418.129411 224.006389,418.646741 223.062975,421.060951 C218.260136,434.942654 212.856942,448.47947 207.282219,462.102509 C202.222085,474.43222 197.161952,487.365485 190.643813,498.488092 C190.300753,499.091644 189.957694,498.9192 190.129223,498.315648 Z M229.658301,538.943342 C232.145486,517.043015 236.691029,494.884022 240.721983,473.069917 C244.752937,451.083368 249.298481,429.355484 253.92979,407.541379 C254.358615,405.558278 255.902384,405.903165 255.559324,407.800044 C252.128725,429.872815 248.783891,451.859363 244.752937,473.845912 C240.721983,495.660018 237.119854,517.905232 231.716661,539.288229 C231.116306,541.78866 229.401006,541.443773 229.658301,538.943342 Z M282.463797,509.602077 C280.405438,499.083022 280.405438,487.701749 280.062378,476.751586 C279.719318,464.680539 279.547788,452.609493 279.976613,440.538446 C280.062378,438.382902 281.520383,438.382902 281.777678,440.452225 C282.806857,452.523271 283.321447,464.508096 283.664507,476.665364 C283.921802,487.615528 284.522157,498.9968 283.064152,509.602077 C282.978387,510.119407 282.549562,510.119407 282.463797,509.602077 Z M335.355059,536.839531 C329.780335,519.940066 326.006676,502.092161 321.804192,484.761587 C317.601708,467.25857 313.999579,449.669331 310.39745,432.080092 C310.054391,430.5281 311.683925,430.096991 312.11275,431.735205 C316.829824,448.979557 321.632662,466.310131 325.835146,483.726926 C330.03763,501.143722 334.668939,518.732961 337.413418,536.3222 C337.756478,538.391523 335.955414,538.73641 335.355059,536.839531 Z M376.101999,497.72934 C370.784571,490.831599 367.182442,482.381867 363.323018,474.449465 C359.120534,465.654845 355.175345,456.860226 351.658981,447.720719 C351.058626,446.168727 352.430866,445.565175 353.20275,447.030945 C358.091354,455.480677 362.379603,464.102854 366.582087,472.897473 C370.355746,480.916097 374.55823,489.020942 376.616589,497.470675 C376.702354,497.901784 376.359294,498.074227 376.101999,497.72934 Z M431.343221,491.874883 C424.310493,485.063364 418.650004,476.958518 412.732221,469.284781 C406.814437,461.438601 401.411244,453.419977 395.922285,445.315132 C395.49346,444.539136 396.69417,443.590697 397.294525,444.280471 C403.726898,451.60932 410.073506,459.024392 415.99129,466.698129 C421.909073,474.458087 428.341447,482.045602 433.05852,490.581556 C433.57311,491.616217 432.115106,492.650878 431.343221,491.874883 Z M462.115694,447.246499 C456.626736,444.918512 452.081192,440.607424 447.535648,436.727444 C442.475515,432.502578 437.672676,428.105268 433.212897,423.27685 C432.355247,422.414632 433.384427,421.207528 434.327842,421.897302 C439.8168,425.604837 444.876934,429.65726 449.851303,433.968348 C454.396846,437.848327 459.28545,441.728307 462.458754,446.81539 C462.630284,447.074056 462.372989,447.332721 462.115694,447.246499 Z M552.271161,311.344823 C540.349829,311.862153 528.256967,310.482605 516.335636,309.534166 C504.328539,308.585726 492.492972,307.119956 480.57164,305.567965 C479.456696,305.481743 479.628226,303.843529 480.74317,303.843529 C492.750267,304.188416 504.671599,304.533303 516.678696,305.481743 C528.600027,306.34396 540.778654,306.861291 552.442691,309.189279 C553.814931,309.534166 553.643401,311.344823 552.271161,311.344823 Z M517.228268,203.152695 C508.480241,207.80867 498.960328,210.74021 489.697711,214.016637 C480.349328,217.379285 470.915181,220.138382 461.395269,222.897478 C460.537619,223.156143 460.023029,221.604152 460.794914,221.259265 C469.971766,217.465507 478.977089,213.499306 488.325471,210.222879 C497.588089,206.860231 506.850706,203.066473 516.542149,201.169594 C517.657093,200.910929 518.257448,202.635364 517.228268,203.152695 Z M484.568965,159.998704 C480.623776,164.482235 475.220583,167.499997 470.160449,170.690202 C464.585726,174.225294 458.925237,177.415499 452.921689,180.260817 C451.892509,180.778148 451.120624,179.484822 451.978274,178.708826 C457.209938,174.656403 462.613131,171.035089 468.27362,167.586219 C473.333753,164.482235 478.479652,160.947143 484.31167,159.481373 C484.568965,159.395151 484.740495,159.740038 484.568965,159.998704 Z M461.995623,112.257715 C454.36254,121.569665 445.271453,129.67451 436.60919,137.865578 C427.946928,146.229088 418.85584,154.075269 409.764753,162.007671 C408.907103,162.697445 407.792158,161.49034 408.564043,160.714344 C416.883246,151.919725 425.030918,143.211327 433.778946,134.934038 C442.441209,126.656749 450.931941,117.862129 460.537619,110.705723 C461.652564,109.929727 462.853273,111.223054 461.995623,112.257715 Z M414.713392,85.9859443 C412.912327,91.7628022 409.224433,96.7636644 405.879599,101.678305 C402.191705,107.196497 398.332281,112.456025 393.958267,117.456887 C393.272148,118.319105 391.985673,117.456887 392.500263,116.422226 C395.587802,110.645368 399.104166,105.040953 402.877825,99.6089825 C406.222659,94.6943421 409.481728,89.4348147 414.198802,85.6410572 C414.456097,85.4686137 414.799157,85.727279 414.713392,85.9859443 Z M374.764066,51.8852379 C370.647347,65.7669414 364.643798,79.2175361 359.069075,92.6681307 C353.580116,106.118725 347.490803,119.310655 341.40149,132.588806 C340.8869,133.795911 339.34313,133.106136 339.85772,131.899032 C344.832089,118.189772 349.720692,104.566734 355.295416,91.116139 C360.784374,77.6655444 365.930273,63.8700627 372.791471,51.1092421 C373.563356,49.6434721 375.19289,50.2470245 374.764066,51.8852379 Z M319.317008,56.2566812 C319.145478,67.2930666 316.658294,78.7605607 314.685699,89.8831679 C312.45581,102.21288 310.054391,114.283926 307.052616,126.441194 C306.538026,128.510517 305.080022,128.251851 305.337317,126.096307 C306.795321,113.766596 308.853681,101.523106 311.169335,89.1933938 C313.227695,78.1570084 315.028759,66.5170707 318.716653,56.1704594 C318.888183,55.6531289 319.317008,55.7393506 319.317008,56.2566812 Z M189.245844,172.707791 C189.417374,173.052678 189.245844,173.483787 188.902784,173.570009 C188.731254,173.656231 188.473959,173.742452 188.302429,173.742452 C186.93019,174.259783 185.21489,172.449126 184.614535,171.328243 C183.928416,170.121138 185.643715,168.74159 186.58713,169.862473 C187.015955,170.293582 187.44478,170.724691 187.873605,171.069578 C188.302429,171.500687 188.731254,171.759352 188.902784,172.276682 C188.988549,172.449126 189.160079,172.535348 189.245844,172.707791 Z M385.570453,128.967492 C386.256572,128.191496 387.543047,128.967492 387.285752,130.002153 C386.685397,132.243919 385.827748,134.830572 383.512093,135.779011 C383.169033,135.951455 382.654443,135.606568 382.568678,135.175459 C382.139854,132.675028 383.940918,130.691927 385.570453,128.967492 Z M497.005568,254.473764 C497.005568,254.732429 497.005568,255.077316 496.748273,255.24976 C496.576743,255.335982 496.405213,255.335982 496.233683,255.422203 C495.976388,255.594647 495.633328,255.76709 495.290268,255.853312 C494.775678,256.111977 494.346853,256.111977 493.832263,255.853312 C493.660734,255.76709 493.574969,255.594647 493.489204,255.422203 C493.231909,254.991095 493.317674,254.30132 493.660734,253.870212 C494.346853,253.352881 495.118738,253.007994 495.890623,253.352881 C496.233683,253.525325 496.919803,254.042655 497.005568,254.473764 Z M211.064454,382.123203 C211.407514,381.864538 211.922104,382.123203 211.750574,382.640534 C211.235984,383.588973 210.807159,384.537413 210.035275,385.485852 C209.349155,386.261848 208.40574,387.037844 207.54809,387.727618 C207.20503,388.158727 206.433146,387.641396 206.776205,387.210287 C207.37656,386.175626 207.89115,385.227187 208.57727,384.278747 C209.26339,383.41653 210.206805,382.812978 211.064454,382.123203 Z M104.192717,453.187179 C104.621542,453.100957 105.050366,453.359622 105.050366,453.876953 C105.221896,455.256501 104.021187,456.549827 103.249302,457.584488 C102.734712,458.188041 102.391652,458.705371 101.791297,459.222702 C101.190943,459.998698 100.762118,459.912476 99.9044679,460.171141 C99.7329379,460.171141 99.5614079,460.084919 99.5614079,459.912476 C99.475643,458.705371 99.389878,458.532928 99.9902328,457.584488 C100.419058,456.894714 100.762118,456.377384 101.190943,455.860053 C102.048592,454.825392 102.820477,453.445844 104.192717,453.187179 Z M382.302807,506.273917 C383.417752,506.273917 384.275401,507.222356 384.361166,508.343239 C384.361166,509.464122 383.331987,510.412561 382.302807,510.412561 C381.102097,510.412561 380.330213,509.464122 380.244448,508.343239 C380.158683,507.222356 381.187862,506.273917 382.302807,506.273917 Z M430.211123,411.421358 C429.525003,411.421358 429.525003,412.542241 430.211123,412.542241 C430.897243,412.542241 430.897243,411.421358 430.211123,411.421358 Z M308.639268,417.189594 C308.467738,418.48292 306.838204,419.517581 305.809024,418.310476 C304.951374,417.189594 304.694079,415.810045 304.608314,414.430497 C304.608314,413.740723 304.694079,413.050949 304.865609,412.361175 C305.037139,411.671401 305.294434,411.326514 305.551729,410.722961 C305.980554,409.946966 307.352794,410.033187 307.524324,410.981627 C307.524324,411.326514 307.610089,411.585179 307.695854,411.930066 C308.210444,412.016288 308.639268,412.447397 308.639268,413.223393 C308.639268,413.999388 308.467738,414.947828 308.467738,415.810045 C308.639268,416.241154 308.639268,416.758485 308.639268,417.189594 Z M478.702641,459.921098 C479.302996,460.697094 478.359581,461.645533 477.501931,461.47309 C475.700867,461.041981 473.985567,459.576211 472.613328,458.196663 C471.155323,456.817115 469.783083,455.265123 468.668139,453.540688 C468.325079,453.023357 469.011199,452.419805 469.440023,452.764692 C471.155323,453.885575 472.784858,455.09268 474.414392,456.299784 C475.958162,457.420667 477.673461,458.455328 478.702641,459.921098 Z" id="Combined-Shape" fill="#7D3500" fill-rule="evenodd" style="mix-blend-mode: screen;"></path>
                    <path d="M130.088531,343.333286 C117.058952,343.333286 110.212901,335.600239 110.212901,333.611741 C110.212901,332.286076 112.421304,330.076634 113.525506,330.076634 C114.629708,330.076634 118.383994,339.798179 130.530212,339.798179 C138.922145,339.798179 145.989036,331.623243 145.989036,323.006419 C145.989036,310.191655 130.088531,288.097235 128.763489,283.015518 C125.230044,291.632342 120.150716,300.47011 117.279792,305.330883 C116.17559,307.098437 115.733909,307.761269 114.850548,307.761269 C114.188027,307.761269 113.304666,307.098437 113.304666,306.435604 C113.304666,305.551827 113.746346,304.888995 114.850548,303.121441 C117.942313,298.481613 123.905002,287.655346 126.996767,277.933801 C126.996767,277.933801 125.892565,270.863587 125.892565,267.107535 C125.892565,252.525218 136.272061,240.594231 139.584666,240.594231 C141.130548,240.594231 141.572229,241.257063 141.572229,242.361784 C141.572229,243.466505 137.155422,246.117836 137.155422,261.362986 C137.155422,276.608136 157.251893,297.597836 157.251893,312.180153 C157.251893,332.50702 142.676431,343.333286 130.088531,343.333286 Z M244.262985,324.553029 C231.675086,324.553029 223.945674,312.622042 223.945674,299.144445 C214.89122,314.831484 197.003153,342.670454 182.206851,342.670454 C176.023321,342.670454 169.839792,337.809681 169.839792,326.983415 C169.839792,300.028222 202.303321,260.921098 229.245842,260.921098 C239.183657,260.921098 243.379624,267.770368 243.379624,270.421698 C243.379624,271.526419 242.275422,272.410196 240.95038,272.410196 C239.404498,272.410196 239.183657,265.78187 230.350044,265.78187 C207.161809,265.78187 185.077775,305.109939 185.077775,325.878694 C185.077775,331.181355 186.623657,333.169853 189.715422,333.169853 C195.898952,333.169853 211.578615,311.296377 222.841473,292.958007 C227.9208,284.783072 232.116767,278.817578 234.766851,278.817578 C236.312733,278.817578 237.858615,280.143243 237.858615,282.352686 C237.858615,291.853286 233.441809,317.924703 249.563153,317.924703 C259.721809,317.924703 265.684498,306.435604 267.672061,303.121441 C267.672061,303.121441 268.776262,301.353887 269.659624,301.353887 C270.322145,301.353887 271.205506,301.795776 271.205506,302.679552 C271.205506,303.342385 270.542985,304.66805 270.542985,304.66805 C267.00954,310.4126 259.942649,324.553029 244.262985,324.553029 Z M285.560128,338.030625 C312.060968,338.030625 332.81996,296.272171 332.81996,275.282471 C332.81996,270.863587 331.053237,268.875089 328.623994,268.875089 C316.036094,268.875089 289.314414,310.4126 284.897607,318.587535 C280.4808,326.762471 278.272397,330.739467 275.401473,330.739467 C272.530548,330.739467 266.788699,328.30908 266.788699,276.82908 C266.788699,203.033716 292.627019,181.160239 306.7608,181.160239 C314.048531,181.160239 317.581977,186.904789 317.581977,196.847278 C317.581977,235.29157 284.455926,293.178952 279.376599,302.01672 C279.818279,309.749767 280.25996,315.715261 280.701641,315.715261 C281.805842,315.715261 311.398447,261.804874 333.261641,261.804874 C342.316094,261.804874 348.278783,267.32848 348.278783,276.82908 C348.278783,305.993716 315.815254,342.007621 285.780968,342.007621 C280.701641,342.007621 277.609876,340.240068 277.609876,339.135346 C277.609876,338.030625 278.493237,336.925904 279.376599,336.925904 C280.4808,336.925904 281.585002,338.030625 285.560128,338.030625 Z M278.272397,270.863587 C278.272397,272.852085 278.493237,284.562128 278.934918,295.388394 C286.001809,281.910797 310.515086,232.419295 310.515086,196.626334 C310.515086,189.556119 309.190044,185.358179 304.552397,185.358179 C294.393741,185.358179 278.272397,213.639037 278.272397,270.863587 Z M394.434414,262.688651 C406.359792,262.688651 412.764162,270.863587 412.764162,286.329681 C412.764162,315.273372 395.759456,339.798179 379.196431,339.798179 C366.387691,339.798179 356.008195,329.85569 356.008195,313.06393 C356.008195,283.899295 379.417271,262.688651 394.434414,262.688651 Z M395.759456,267.32848 C382.950716,267.32848 371.025338,289.643844 371.025338,313.505819 C371.025338,324.773973 375.883825,332.286076 383.834078,332.286076 C393.771893,332.286076 406.359792,311.296377 406.359792,286.329681 C406.359792,274.619638 402.826346,267.32848 395.759456,267.32848 Z M496.462649,304.66805 C492.929204,310.4126 475.703657,337.146849 460.907355,337.146849 C452.957103,337.146849 445.448531,332.286076 445.448531,322.564531 C445.448531,305.993716 458.257271,288.760068 458.257271,284.783072 C458.257271,280.806076 451.41122,278.37569 443.681809,272.852085 C441.031725,283.899295 432.860632,298.481613 428.664666,305.330883 C427.560464,307.098437 427.118783,307.761269 426.235422,307.761269 C425.572901,307.761269 424.68954,307.098437 424.68954,306.435604 C424.68954,305.551827 425.13122,304.888995 426.235422,303.121441 C429.989708,297.155947 438.602481,281.689853 440.148363,270.642643 C432.860632,265.119037 420.272733,256.723158 420.272733,241.698952 C420.272733,228.000411 429.327187,220.930196 435.952397,220.930196 C444.56517,220.930196 450.086178,229.326076 450.086178,240.373286 C450.086178,250.094831 446.552733,261.362986 446.552733,261.362986 C456.932229,269.537922 467.090884,276.387192 467.090884,281.689853 C467.090884,286.992514 459.582313,303.563329 459.582313,320.355089 C459.582313,327.204359 462.894918,330.739467 467.090884,330.739467 C475.703657,330.739467 493.591725,303.121441 493.591725,303.121441 C493.591725,303.121441 494.695926,301.353887 495.579288,301.353887 C496.241809,301.353887 497.12517,301.795776 497.12517,302.679552 C497.12517,303.342385 496.462649,304.66805 496.462649,304.66805 Z M443.681809,259.374488 C443.681809,259.374488 445.448531,252.083329 445.448531,243.024617 C445.448531,232.640239 440.369204,225.34908 436.394078,225.34908 C433.302313,225.34908 429.768867,228.663243 429.768867,235.070625 C429.768867,250.315776 443.681809,259.374488 443.681809,259.374488 Z" id="sabor" fill="#EE8A29" fill-rule="nonzero"></path>
                    <path d="M141.427455,186.497269 L130.683573,216.578823 C130.297102,217.661449 129.601455,218.202763 128.596632,218.202763 C127.514514,218.202763 126.741573,217.661449 126.355102,216.578823 L115.61122,186.497269 L115.61122,225.007844 C115.61122,226.322462 114.915573,227.018437 113.601573,227.018437 L112.442161,227.018437 C111.128161,227.018437 110.432514,226.322462 110.432514,225.007844 L110.432514,174.897698 C110.432514,173.58308 111.128161,172.887106 112.442161,172.887106 L114.065338,172.887106 C115.22475,172.887106 115.997691,173.428419 116.384161,174.511046 L128.442044,208.691115 L140.731808,174.511046 C141.040985,173.50575 141.89122,172.887106 143.050632,172.887106 L144.828397,172.887106 C146.142397,172.887106 146.838044,173.58308 146.838044,174.897698 L146.838044,225.007844 C146.838044,226.322462 146.142397,227.018437 144.828397,227.018437 L143.437102,227.018437 C142.123102,227.018437 141.427455,226.322462 141.427455,225.007844 L141.427455,186.497269 Z M183.5368,172.887106 C184.8508,172.887106 185.546447,173.58308 185.546447,174.897698 L185.546447,216.192171 C185.546447,224.079879 181.217976,227.63708 173.0248,227.63708 L172.715624,227.63708 C164.522447,227.63708 160.193976,224.157209 160.193976,216.192171 L160.193976,174.897698 C160.193976,173.58308 160.889624,172.887106 162.203624,172.887106 L163.672212,172.887106 C164.986212,172.887106 165.759153,173.58308 165.759153,174.897698 L165.759153,214.800222 C165.759153,220.445346 167.691506,222.6106 172.870212,222.6106 C178.048918,222.6106 179.981271,220.445346 179.981271,214.800222 L179.981271,174.897698 C179.981271,173.58308 180.754212,172.887106 182.068212,172.887106 L183.5368,172.887106 Z M204.776733,225.007844 C204.776733,226.322462 204.003792,227.018437 202.689792,227.018437 L201.221203,227.018437 C199.907203,227.018437 199.211556,226.322462 199.211556,225.007844 L199.211556,174.897698 C199.211556,173.58308 199.907203,172.887106 201.221203,172.887106 L202.689792,172.887106 C204.003792,172.887106 204.776733,173.58308 204.776733,174.897698 L204.776733,225.007844 Z M237.91996,172.887106 C239.156666,172.887106 239.929607,173.58308 239.929607,174.897698 L239.929607,175.902995 C239.929607,177.217613 239.156666,177.913587 237.91996,177.913587 L230.03596,177.913587 L230.03596,225.007844 C230.03596,226.322462 229.340313,227.018437 228.026313,227.018437 L226.48043,227.018437 C225.243724,227.018437 224.470783,226.322462 224.470783,225.007844 L224.470783,177.913587 L216.664077,177.913587 C215.350077,177.913587 214.65443,177.217613 214.65443,175.902995 L214.65443,174.897698 C214.65443,173.58308 215.350077,172.887106 216.664077,172.887106 L237.91996,172.887106 Z M248.879775,183.713372 C248.879775,175.902995 253.362834,172.268462 261.55601,172.268462 L262.174363,172.268462 C270.36754,172.268462 274.850598,175.980325 274.850598,183.713372 L274.850598,216.192171 C274.850598,223.925218 270.36754,227.63708 262.174363,227.63708 L261.55601,227.63708 C253.362834,227.63708 248.879775,223.925218 248.879775,216.192171 L248.879775,183.713372 Z M254.444951,214.800222 C254.444951,220.445346 256.686481,222.6106 261.865187,222.6106 C267.043893,222.6106 269.285422,220.445346 269.285422,214.800222 L269.285422,185.105321 C269.285422,179.460196 267.043893,177.294943 261.865187,177.294943 C256.686481,177.294943 254.444951,179.460196 254.444951,185.105321 L254.444951,214.800222 Z M329.620229,224.775853 C329.852111,226.245132 329.156464,227.018437 327.76517,227.018437 L326.141994,227.018437 C324.982582,227.018437 324.209641,226.477123 323.977758,225.162505 L321.658935,213.640265 L308.364346,213.640265 L306.045523,225.162505 C305.813641,226.477123 305.117994,227.018437 303.881288,227.018437 L302.567288,227.018437 C301.175994,227.018437 300.480346,226.245132 300.712229,224.775853 L311.378817,174.665707 C311.610699,173.428419 312.383641,172.887106 313.620346,172.887106 L316.557523,172.887106 C317.794229,172.887106 318.56717,173.428419 318.799052,174.665707 L329.620229,224.775853 Z M309.36917,208.768445 L320.654111,208.768445 L315.011641,180.620153 L309.36917,208.768445 Z M371.265809,186.497269 L360.521926,216.578823 C360.135456,217.661449 359.439809,218.202763 358.434985,218.202763 C357.352868,218.202763 356.579926,217.661449 356.193456,216.578823 L345.449573,186.497269 L345.449573,225.007844 C345.449573,226.322462 344.753926,227.018437 343.439926,227.018437 L342.280515,227.018437 C340.966515,227.018437 340.270868,226.322462 340.270868,225.007844 L340.270868,174.897698 C340.270868,173.58308 340.966515,172.887106 342.280515,172.887106 L343.903691,172.887106 C345.063103,172.887106 345.836044,173.428419 346.222515,174.511046 L358.280397,208.691115 L370.570162,174.511046 C370.879338,173.50575 371.729573,172.887106 372.888985,172.887106 L374.66675,172.887106 C375.98075,172.887106 376.676397,173.58308 376.676397,174.897698 L376.676397,225.007844 C376.676397,226.322462 375.98075,227.018437 374.66675,227.018437 L373.275456,227.018437 C371.961456,227.018437 371.265809,226.322462 371.265809,225.007844 L371.265809,186.497269 Z M389.877742,183.713372 C389.877742,175.902995 394.3608,172.268462 402.553977,172.268462 L403.17233,172.268462 C411.365506,172.268462 415.848565,175.980325 415.848565,183.713372 L415.848565,216.192171 C415.848565,223.925218 411.365506,227.63708 403.17233,227.63708 L402.553977,227.63708 C394.3608,227.63708 389.877742,223.925218 389.877742,216.192171 L389.877742,183.713372 Z M395.442918,214.800222 C395.442918,220.445346 397.684447,222.6106 402.863153,222.6106 C408.041859,222.6106 410.283389,220.445346 410.283389,214.800222 L410.283389,185.105321 C410.283389,179.460196 408.041859,177.294943 402.863153,177.294943 C397.684447,177.294943 395.442918,179.460196 395.442918,185.105321 L395.442918,214.800222 Z M455.870969,224.698522 C456.334733,226.01314 455.71638,227.018437 454.247792,227.018437 L452.624616,227.018437 C451.465204,227.018437 450.692263,226.477123 450.305792,225.394497 L442.57638,204.205947 L434.615086,204.205947 L434.615086,225.007844 C434.615086,226.322462 433.842145,227.018437 432.528145,227.018437 L431.059557,227.018437 C429.745557,227.018437 429.04991,226.322462 429.04991,225.007844 L429.04991,174.897698 C429.04991,173.58308 429.745557,172.887106 431.059557,172.887106 L442.112616,172.887106 C450.305792,172.887106 454.788851,176.598969 454.788851,184.332016 L454.788851,192.761037 C454.788851,198.406162 452.392733,201.886033 447.986969,203.355312 L455.870969,224.698522 Z M434.615086,177.913587 L434.615086,199.256797 L441.803439,199.256797 C446.982145,199.256797 449.223674,197.091544 449.223674,191.446419 L449.223674,185.723965 C449.223674,180.07884 446.982145,177.913587 441.803439,177.913587 L434.615086,177.913587 Z M469.999843,220.136025 C471.313843,220.136025 472.00949,220.831999 472.00949,222.146617 L472.00949,225.239836 C472.00949,228.874368 471.08196,232.199578 469.690666,234.906145 C469.072313,235.988771 468.299372,236.298093 467.603725,235.988771 C466.830784,235.602119 466.830784,234.828814 467.371843,233.591527 C468.222078,231.658265 468.840431,229.029029 468.917725,227.018437 L468.299372,227.018437 C466.985372,227.018437 466.289725,226.322462 466.289725,225.007844 L466.289725,222.146617 C466.289725,220.831999 466.985372,220.136025 468.299372,220.136025 L469.999843,220.136025 Z M175.954002,411.582952 C175.954002,412.89757 175.258355,413.593544 173.944355,413.593544 L155.857531,413.593544 C154.543531,413.593544 153.847884,412.89757 153.847884,411.582952 L153.847884,361.472806 C153.847884,360.158188 154.543531,359.462213 155.857531,359.462213 L173.712472,359.462213 C175.026472,359.462213 175.722119,360.158188 175.722119,361.472806 L175.722119,362.478102 C175.722119,363.79272 175.026472,364.488694 173.712472,364.488694 L159.413061,364.488694 L159.413061,383.666651 L171.316355,383.666651 C172.630355,383.666651 173.326002,384.362625 173.326002,385.677243 L173.326002,386.605209 C173.326002,387.919827 172.630355,388.615801 171.316355,388.615801 L159.413061,388.615801 L159.413061,408.567063 L173.944355,408.567063 C175.258355,408.567063 175.954002,409.263037 175.954002,410.577655 L175.954002,411.582952 Z M230.105279,411.27363 C230.569044,412.588248 229.950691,413.593544 228.482103,413.593544 L226.858926,413.593544 C225.699514,413.593544 224.926573,413.052231 224.540103,411.969604 L216.810691,390.781055 L208.849397,390.781055 L208.849397,411.582952 C208.849397,412.89757 208.076456,413.593544 206.762456,413.593544 L205.293867,413.593544 C203.979867,413.593544 203.28422,412.89757 203.28422,411.582952 L203.28422,361.472806 C203.28422,360.158188 203.979867,359.462213 205.293867,359.462213 L216.346926,359.462213 C224.540103,359.462213 229.023161,363.174076 229.023161,370.907123 L229.023161,379.336145 C229.023161,384.981269 226.627044,388.46114 222.221279,389.930419 L230.105279,411.27363 Z M208.849397,364.488694 L208.849397,385.831904 L216.03775,385.831904 C221.216456,385.831904 223.457985,383.666651 223.457985,378.021527 L223.457985,372.299072 C223.457985,366.653947 221.216456,364.488694 216.03775,364.488694 L208.849397,364.488694 Z M264.176035,411.582952 C264.176035,412.89757 263.480388,413.593544 262.166388,413.593544 L244.079565,413.593544 C242.765565,413.593544 242.069918,412.89757 242.069918,411.582952 L242.069918,361.472806 C242.069918,360.158188 242.765565,359.462213 244.079565,359.462213 L261.934506,359.462213 C263.248506,359.462213 263.944153,360.158188 263.944153,361.472806 L263.944153,362.478102 C263.944153,363.79272 263.248506,364.488694 261.934506,364.488694 L247.635094,364.488694 L247.635094,383.666651 L259.538388,383.666651 C260.852388,383.666651 261.548035,384.362625 261.548035,385.677243 L261.548035,386.605209 C261.548035,387.919827 260.852388,388.615801 259.538388,388.615801 L247.635094,388.615801 L247.635094,408.567063 L262.166388,408.567063 C263.480388,408.567063 264.176035,409.263037 264.176035,410.577655 L264.176035,411.582952 Z M298.40138,392.018342 C299.71538,392.018342 300.411027,392.714316 300.411027,394.028934 L300.411027,402.767278 C300.411027,410.654986 295.927968,414.212188 287.734792,414.212188 L287.580204,414.212188 C279.387027,414.212188 274.903968,410.732316 274.903968,402.767278 L274.903968,370.28848 C274.903968,362.710093 279.387027,358.84357 287.580204,358.84357 L287.734792,358.84357 C295.927968,358.84357 300.411027,362.710093 300.411027,370.28848 L300.411027,377.712205 C300.411027,379.026823 299.71538,379.722797 298.40138,379.722797 L296.932792,379.722797 C295.618792,379.722797 294.845851,379.026823 294.845851,377.712205 L294.845851,371.680428 C294.845851,366.112634 292.758909,363.87005 287.657498,363.87005 C282.556086,363.87005 280.469145,366.112634 280.469145,371.680428 L280.469145,401.375329 C280.469145,406.943123 282.556086,409.185707 287.657498,409.185707 C292.758909,409.185707 294.845851,406.943123 294.845851,401.375329 L294.845851,394.028934 C294.845851,392.714316 295.618792,392.018342 296.932792,392.018342 L298.40138,392.018342 Z M313.303195,361.472806 C313.303195,360.158188 313.998842,359.462213 315.312842,359.462213 L316.781431,359.462213 C318.095431,359.462213 318.868372,360.158188 318.868372,361.472806 L318.868372,383.51199 L334.095313,383.51199 L334.095313,361.472806 C334.095313,360.158188 334.868254,359.462213 336.182254,359.462213 L337.650842,359.462213 C338.964842,359.462213 339.660489,360.158188 339.660489,361.472806 L339.660489,411.582952 C339.660489,412.89757 338.964842,413.593544 337.650842,413.593544 L336.182254,413.593544 C334.868254,413.593544 334.095313,412.89757 334.095313,411.582952 L334.095313,388.615801 L318.868372,388.615801 L318.868372,411.582952 C318.868372,412.89757 318.095431,413.593544 316.781431,413.593544 L315.312842,413.593544 C313.998842,413.593544 313.303195,412.89757 313.303195,411.582952 L313.303195,361.472806 Z M375.277128,411.582952 C375.277128,412.89757 374.581481,413.593544 373.267481,413.593544 L355.180658,413.593544 C353.866658,413.593544 353.17101,412.89757 353.17101,411.582952 L353.17101,361.472806 C353.17101,360.158188 353.866658,359.462213 355.180658,359.462213 L373.035599,359.462213 C374.349599,359.462213 375.045246,360.158188 375.045246,361.472806 L375.045246,362.478102 C375.045246,363.79272 374.349599,364.488694 373.035599,364.488694 L358.736187,364.488694 L358.736187,383.666651 L370.639481,383.666651 C371.953481,383.666651 372.649128,384.362625 372.649128,385.677243 L372.649128,386.605209 C372.649128,387.919827 371.953481,388.615801 370.639481,388.615801 L358.736187,388.615801 L358.736187,408.567063 L373.267481,408.567063 C374.581481,408.567063 375.277128,409.263037 375.277128,410.577655 L375.277128,411.582952 Z M392.18859,411.582952 C392.18859,412.89757 391.415649,413.593544 390.101649,413.593544 L388.633061,413.593544 C387.319061,413.593544 386.623414,412.89757 386.623414,411.582952 L386.623414,361.472806 C386.623414,360.158188 387.319061,359.462213 388.633061,359.462213 L390.101649,359.462213 C391.415649,359.462213 392.18859,360.158188 392.18859,361.472806 L392.18859,411.582952 Z M405.621817,370.28848 C405.621817,362.478102 410.104876,358.84357 418.298053,358.84357 L418.916406,358.84357 C427.109582,358.84357 431.592641,362.555432 431.592641,370.28848 L431.592641,402.767278 C431.592641,410.500325 427.109582,414.212188 418.916406,414.212188 L418.298053,414.212188 C410.104876,414.212188 405.621817,410.500325 405.621817,402.767278 L405.621817,370.28848 Z M411.186994,401.375329 C411.186994,407.020454 413.428523,409.185707 418.607229,409.185707 C423.785935,409.185707 426.027464,407.020454 426.027464,401.375329 L426.027464,371.680428 C426.027464,366.035304 423.785935,363.87005 418.607229,363.87005 C413.428523,363.87005 411.186994,366.035304 411.186994,371.680428 L411.186994,401.375329 Z" id="MUITOAMOR,ERECHEIO" fill="#FFFFFF" fill-rule="nonzero"></path>
                </g>
            </g>
        </g>
    </g>
</svg>